:SAMPLES-PER-SECOND 30
:FULLY-SPECIFIED
:DEGREES
1
root  81.8527 40.3236 -3.45503 -126.74 -89.0283 126.457
RightUpLeg  -2.28042 -7.48246 -3.81284
RightLeg  6.36331 -3.36232 3.43143
RightFoot  -3.10881 0.187272 -2.90543
RightToes  -4.65663e-010 0 -3.6325e-017
Spine  3.08394 0.898671 -2.16076
Spine1  0.902396 0.544463 2.21961
HEad  2.75679 -7.68463 -0.12397
LeftShoulder1  0.673173 -1.11494 -6.84842
LeftArm  -18.7927 13.3211 -10.485
LeftForeArm  20.5882 -2.80079 -0.754999
LeftHand  -0.244104 0.0205437 5.32207
RightShoulder  0.339436 -1.03742 6.04952
RightArm  -21.763 -9.34799 5.25818
RightForeArm  3.58231 5.45917 2.33562
RightHand  -1.43652 4.9201 -16.3595
LeftUpLeg  -0.968476 4.65233 1.61253
LeftLeg  4.41009 15.4667 -3.1557
LeftFoot  -3.73841 -0.0750486 1.61237
LeftToes  -5.82109e-011 -4.83791e-012 -1.00937e-011
2
root  81.8275 40.3248 -3.45767 -124.965 -89.019 124.756
RightUpLeg  -2.27699 -7.52516 -3.85273
RightLeg  6.28494 -3.31354 3.47485
RightFoot  -3.11916 0.180797 -2.80634
RightToes  -4.65663e-010 0 -3.6325e-017
Spine  2.88923 0.885464 -2.23848
Spine1  0.862219 0.530499 2.24784
HEad  3.04767 -7.14793 -0.0656554
LeftShoulder1  0.679338 -1.14573 -6.88945
LeftArm  -18.6094 13.2964 -10.387
LeftForeArm  20.0452 -2.80914 -0.850183
LeftHand  -0.244104 0.0205437 5.32207
RightShoulder  0.342038 -1.02923 6.11491
RightArm  -21.8501 -9.31781 5.24475
RightForeArm  3.25957 5.419 2.32182
RightHand  -1.39164 4.57671 -16.3875
LeftUpLeg  -0.97266 4.61346 1.58652
LeftLeg  4.3347 15.4891 -3.17081
LeftFoot  -3.74393 -0.070676 1.54439
LeftToes  -5.82109e-011 -4.83791e-012 -1.00937e-011
3
root  81.7725 40.3288 -3.46136 -121.69 -89.0434 121.626
RightUpLeg  -2.25087 -7.59128 -3.89308
RightLeg  6.12507 -3.29871 3.55917
RightFoot  -3.12364 0.176079 -2.74891
RightToes  -4.65663e-010 0 -3.6325e-017
Spine  2.68262 0.872267 -2.44641
Spine1  0.432384 0.487521 2.46789
HEad  3.47969 -5.87504 0.157357
LeftShoulder1  0.700523 -1.23845 -7.07135
LeftArm  -18.3761 13.2988 -10.1243
LeftForeArm  19.3883 -2.76413 -0.947374
LeftHand  -0.244104 0.0205437 5.32207
RightShoulder  0.371163 -0.843588 6.26401
RightArm  -21.7746 -9.46631 4.97905
RightForeArm  2.73512 5.41343 2.3397
RightHand  -1.32788 4.03681 -16.5153
LeftUpLeg  -0.991017 4.54013 1.56217
LeftLeg  4.21641 15.5029 -3.17633
LeftFoot  -3.75384 -0.0647927 1.45292
LeftToes  -5.82109e-011 -4.83791e-012 -1.00937e-011
4
root  81.7031 40.3322 -3.46344 -123.248 -89.0498 123.363
RightUpLeg  -2.28698 -7.58898 -3.86954
RightLeg  6.03581 -3.30286 3.5947
RightFoot  -3.16714 0.1765 -2.79167
RightToes  -4.65663e-010 0 -3.6325e-017
Spine  2.59968 0.922954 -2.77428
Spine1  -0.383037 0.469042 2.94103
HEad  3.71078 -4.08651 0.528458
LeftShoulder1  0.726939 -1.3091 -7.4438
LeftArm  -18.3425 13.3233 -9.77161
LeftForeArm  19.4688 -2.66016 -0.914585
LeftHand  -0.244104 0.0205437 5.32207
RightShoulder  0.392975 -0.68537 6.25508
RightArm  -21.5176 -9.6702 4.72321
RightForeArm  2.5629 5.45821 2.38871
RightHand  -1.28807 3.66835 -16.6579
LeftUpLeg  -1.03916 4.493 1.56815
LeftLeg  4.14495 15.5641 -3.16944
LeftFoot  -3.81263 -0.0617709 1.40595
LeftToes  -5.82109e-011 -4.83791e-012 -1.00937e-011
5
root  81.6294 40.3325 -3.46512 -131.408 -88.9761 131.67
RightUpLeg  -2.37396 -7.48966 -3.78771
RightLeg  6.08532 -3.26678 3.53129
RightFoot  -3.27606 0.176677 -2.83972
RightToes  -4.65663e-010 0 -3.6325e-017
Spine  2.46867 1.03893 -3.06637
Spine1  -1.10137 0.52682 3.38197
HEad  3.6089 -2.36246 0.890213
LeftShoulder1  0.745264 -1.32725 -7.8029
LeftArm  -18.5215 13.3227 -9.51452
LeftForeArm  20.1445 -2.55944 -0.780005
LeftHand  -0.244104 0.0205437 5.32207
RightShoulder  0.375503 -0.766946 6.00122
RightArm  -21.3088 -9.72357 4.85416
RightForeArm  2.57478 5.51196 2.45237
RightHand  -1.27488 3.54523 -16.7102
LeftUpLeg  -1.04715 4.51113 1.60767
LeftLeg  4.12152 15.6878 -3.18679
LeftFoot  -3.93004 -0.0620099 1.40966
LeftToes  -5.82109e-011 -4.83791e-012 -1.00937e-011
6
root  81.5543 40.3313 -3.46601 -138.589 -88.8594 138.883
RightUpLeg  -2.35843 -7.38435 -3.72585
RightLeg  6.17525 -3.20172 3.4348
RightFoot  -3.41109 0.172583 -2.82842
RightToes  -4.65663e-010 0 -3.6325e-017
Spine  2.12742 1.13642 -3.16198
Spine1  -1.34532 0.61963 3.50213
HEad  3.38739 -1.12531 1.08777
LeftShoulder1  0.755885 -1.35375 -7.95306
LeftArm  -18.6911 13.256 -9.4386
LeftForeArm  20.5954 -2.50505 -0.686476
LeftHand  -0.244104 0.0205437 5.32207
RightShoulder  0.344416 -0.948256 5.73014
RightArm  -21.2684 -9.68525 5.2574
RightForeArm  2.25649 5.59896 2.52865
RightHand  -1.28073 3.5818 -16.7193
LeftUpLeg  -0.927689 4.55063 1.64377
LeftLeg  4.10576 15.8022 -3.21437
LeftFoot  -4.04834 -0.0633009 1.42973
LeftToes  -5.82109e-011 -4.83791e-012 -1.00937e-011
7
root  81.4787 40.3298 -3.45976 -141.333 -88.7828 141.514
RightUpLeg  -2.15651 -7.36955 -3.74925
RightLeg  6.2444 -3.11205 3.38988
RightFoot  -3.54419 0.166285 -2.78918
RightToes  -4.65663e-010 0 -3.6325e-017
Spine  1.71614 1.16754 -3.07128
Spine1  -1.28166 0.682089 3.3777
HEad  3.22056 -0.524383 1.1014
LeftShoulder1  0.764592 -1.40019 -7.98806
LeftArm  -18.6522 13.123 -9.45559
LeftForeArm  20.5341 -2.49506 -0.721716
LeftHand  -0.244104 0.0205437 5.32207
RightShoulder  0.333974 -1.01099 5.63915
RightArm  -21.3159 -9.69294 5.52298
RightForeArm  1.81072 5.74819 2.59148
RightHand  -1.29924 3.68114 -16.7759
LeftUpLeg  -0.675748 4.54049 1.62317
LeftLeg  4.113 15.8933 -3.17669
LeftFoot  -4.13778 -0.0650161 1.45639
LeftToes  -5.82109e-011 -4.83791e-012 -1.00937e-011
8
root  81.4056 40.326 -3.44161 -143.58 -88.7107 143.522
RightUpLeg  -1.84972 -7.42992 -3.83425
RightLeg  6.38421 -2.93481 3.38729
RightFoot  -3.69498 0.161045 -2.78279
RightToes  -4.65663e-010 0 -3.6325e-017
Spine  1.44907 1.18852 -2.86188
Spine1  -1.19136 0.739289 3.19806
HEad  3.02886 -0.482496 1.02775
LeftShoulder1  0.767461 -1.40956 -8.02021
LeftArm  -18.4763 12.9707 -9.55178
LeftForeArm  20.3672 -2.51155 -0.828649
LeftHand  -0.244104 0.0205437 5.32207
RightShoulder  0.335004 -1.00808 5.66775
RightArm  -21.3678 -9.69666 5.5377
RightForeArm  1.81009 5.84955 2.59175
RightHand  -1.30376 3.65869 -16.8731
LeftUpLeg  -0.341481 4.49451 1.55273
LeftLeg  4.21815 16.0245 -3.04034
LeftFoot  -4.27216 -0.0650515 1.47273
LeftToes  -5.82109e-011 -4.83791e-012 -1.00937e-011
9
root  81.3399 40.3173 -3.4168 -147.986 -88.5815 147.609
RightUpLeg  -1.54126 -7.50931 -3.91637
RightLeg  6.64916 -2.65792 3.38244
RightFoot  -3.86611 0.160281 -2.85275
RightToes  -4.65663e-010 0 -3.6325e-017
Spine  1.3917 1.25269 -2.56966
Spine1  -1.18 0.839217 3.0043
HEad  2.83416 -0.559814 0.933934
LeftShoulder1  0.767692 -1.39921 -8.06165
LeftArm  -18.3184 12.8851 -9.6856
LeftForeArm  20.2766 -2.53274 -0.918981
LeftHand  -0.244104 0.0205437 5.32207
RightShoulder  0.331374 -1.03767 5.68323
RightArm  -21.3639 -9.64387 5.45428
RightForeArm  2.03201 5.76303 2.55063
RightHand  -1.27741 3.43497 -16.9431
LeftUpLeg  0.0247329 4.49525 1.49576
LeftLeg  4.4541 16.1685 -2.85546
LeftFoot  -4.54161 -0.0550072 1.3863
LeftToes  -5.82109e-011 -4.83791e-012 -1.00937e-011
10
root  81.2866 40.3028 -3.39254 -152.314 -88.4608 151.618
RightUpLeg  -1.27631 -7.60533 -3.97185
RightLeg  6.96747 -2.40357 3.38253
RightFoot  -4.04618 0.163609 -2.99453
RightToes  -4.65663e-010 0 -3.6325e-017
Spine  1.41164 1.31914 -2.21316
Spine1  -1.15692 0.954272 2.72895
HEad  2.71081 -0.534177 0.891719
LeftShoulder1  0.773666 -1.44747 -8.02793
LeftArm  -18.2817 12.9045 -9.78599
LeftForeArm  20.0299 -2.50132 -0.942663
LeftHand  -0.244104 0.0205437 5.32207
RightShoulder  0.334915 -1.01738 5.71968
RightArm  -21.2877 -9.65741 5.33106
RightForeArm  1.8575 5.56053 2.53947
RightHand  -1.26194 3.32677 -16.9428
LeftUpLeg  0.317701 4.58057 1.47719
LeftLeg  4.84706 16.1866 -2.64148
LeftFoot  -4.97622 -0.0328078 1.12786
LeftToes  -5.82109e-011 -4.83791e-012 -1.00937e-011
11
root  81.2467 40.2814 -3.36592 -155.17 -88.435 154.223
RightUpLeg  -1.09433 -7.7069 -4.00366
RightLeg  7.29318 -2.27517 3.38891
RightFoot  -4.26125 0.163199 -3.10211
RightToes  -4.65663e-010 0 -3.6325e-017
Spine  1.40223 1.32973 -1.85076
Spine1  -1.0815 1.01723 2.43322
HEad  2.77948 -0.524599 0.947378
LeftShoulder1  0.782732 -1.53616 -7.92464
LeftArm  -18.3658 12.9919 -9.80998
LeftForeArm  19.6662 -2.37715 -0.893985
LeftHand  -0.244104 0.0205437 5.32207
RightShoulder  0.355974 -0.878566 5.82192
RightArm  -21.225 -9.81805 5.14594
RightForeArm  1.57631 5.45706 2.54876
RightHand  -1.29401 3.5963 -16.8624
LeftUpLeg  0.408927 4.75165 1.45457
LeftLeg  5.4651 16.0107 -2.33486
LeftFoot  -5.56549 -0.00710118 0.804793
LeftToes  -5.82109e-011 -4.83791e-012 -1.00937e-011
12
root  81.2123 40.2561 -3.32916 -158.473 -88.429 157.329
RightUpLeg  -0.984923 -7.75992 -4.00092
RightLeg  7.62369 -2.18914 3.3493
RightFoot  -4.51124 0.151925 -3.05608
RightToes  -4.65663e-010 0 -3.6325e-017
Spine  1.46627 1.32334 -1.52999
Spine1  -1.1143 1.04642 2.24
HEad  3.21194 -0.686389 1.04234
LeftShoulder1  0.785031 -1.57451 -7.84569
LeftArm  -18.4504 13.1205 -9.77862
LeftForeArm  19.5602 -2.23151 -0.822112
LeftHand  -0.244104 0.0205437 5.32207
RightShoulder  0.37464 -0.759992 5.92931
RightArm  -21.2545 -9.98154 4.95095
RightForeArm  1.83145 5.49653 2.51442
RightHand  -1.32081 3.86568 -16.72
LeftUpLeg  0.348355 5.03284 1.40163
LeftLeg  6.24839 15.7354 -1.9273
LeftFoot  -6.24018 0.0110085 0.597942
LeftToes  -5.82109e-011 -4.83791e-012 -1.00937e-011
13
root  81.1699 40.2369 -3.28176 -163.477 -88.2955 162.134
RightUpLeg  -0.829382 -7.7517 -3.98477
RightLeg  7.84926 -1.99769 3.27643
RightFoot  -4.70087 0.138132 -2.92615
RightToes  -4.65663e-010 0 -3.6325e-017
Spine  1.70494 1.40407 -1.2166
Spine1  -1.37967 1.15919 2.08223
HEad  4.10527 -0.926544 1.10238
LeftShoulder1  0.784516 -1.59756 -7.75768
LeftArm  -18.4262 13.3096 -9.76525
LeftForeArm  19.7917 -2.18175 -0.7894
LeftHand  -0.244104 0.0205437 5.32207
RightShoulder  0.36849 -0.832762 6.08958
RightArm  -21.2738 -9.99813 4.7374
RightForeArm  2.33538 5.49878 2.45358
RightHand  -1.28091 3.65765 -16.5874
LeftUpLeg  0.371992 5.3512 1.34832
LeftLeg  6.90332 15.5694 -1.55807
LeftFoot  -6.84352 0.0204907 0.523235
LeftToes  -5.82109e-011 -4.83791e-012 -1.00937e-011
14
root  81.1105 40.2314 -3.22823 -168.039 -88.018 166.515
RightUpLeg  -0.552301 -7.77086 -4.03953
RightLeg  7.81832 -1.65361 3.29978
RightFoot  -4.74966 0.134221 -2.9075
RightToes  -4.65663e-010 0 -3.6325e-017
Spine  1.94471 1.58221 -0.928987
Spine1  -1.71773 1.37528 1.90775
HEad  5.30372 -1.02973 1.11411
LeftShoulder1  0.792427 -1.67542 -7.67244
LeftArm  -18.3063 13.558 -9.72254
LeftForeArm  20.0247 -2.24725 -0.80546
LeftHand  -0.244104 0.0205437 5.32207
RightShoulder  0.346306 -1.03145 6.32446
RightArm  -21.1522 -9.92869 4.48177
RightForeArm  2.422 5.35569 2.4404
RightHand  -1.22484 3.28791 -16.5287
LeftUpLeg  0.601077 5.5127 1.30687
LeftLeg  7.15248 15.6856 -1.37763
LeftFoot  -7.23115 0.0255538 0.480296
LeftToes  -5.82109e-011 -4.83791e-012 -1.00937e-011
15
root  81.0359 40.2333 -3.16811 -170.897 -87.6952 169.297
RightUpLeg  -0.265591 -7.88883 -4.19355
RightLeg  7.59737 -1.18634 3.46994
RightFoot  -4.72329 0.137577 -2.99084
RightToes  -4.65663e-010 0 -3.6325e-017
Spine  1.91788 1.75679 -0.727864
Spine1  -1.86335 1.57419 1.80699
HEad  6.61123 -0.8494 1.11066
LeftShoulder1  0.800574 -1.73045 -7.66829
LeftArm  -18.1949 13.8243 -9.60318
LeftForeArm  20.082 -2.31664 -0.819145
LeftHand  -0.244104 0.0205437 5.32207
RightShoulder  0.330421 -1.16772 6.47573
RightArm  -20.9454 -9.91929 4.29454
RightForeArm  2.24219 5.21462 2.48499
RightHand  -1.23732 3.38207 -16.5212
LeftUpLeg  0.885813 5.49324 1.25836
LeftLeg  7.07673 16.027 -1.37335
LeftFoot  -7.42493 0.0285582 0.473084
LeftToes  -5.82109e-011 -4.83791e-012 -1.00937e-011
